<svg width="18px" height="21px" viewBox="0 0 18 21" version="1.1" xmlns="http://www.w3.org/2000/svg" xmlns:xlink="http://www.w3.org/1999/xlink">
    <!-- Generator: Sketch 39.1 (31720) - http://www.bohemiancoding.com/sketch -->
    <desc>Created with Sketch.</desc>
    <defs></defs>
    <g id="Group" stroke="none" stroke-width="1" fill="none" fill-rule="evenodd">
        <path d="M16.3587091,0 L1.59970637,0 C0.719900277,0 0.00413850415,0.709305882 0.00413850415,1.58117647 L0.00413850415,20.5634965 C0.00413850415,20.7817976 0.182742382,20.9587906 0.403030471,20.9587906 L17.555385,20.9587906 C17.7756731,20.9587906 17.954277,20.7817976 17.954277,20.5634965 L17.954277,1.58117647 C17.954277,0.709305882 17.2385152,0 16.3587091,0 L16.3587091,0 Z M0.801922438,20.1682024 L0.801922438,3.95294118 L14.3725762,3.95294118 C14.5928643,3.95294118 14.7714681,3.77594824 14.7714681,3.55764706 C14.7714681,3.33934588 14.5928643,3.16235294 14.3725762,3.16235294 L0.801922438,3.16235294 L0.801922438,1.58117647 C0.801922438,1.14526588 1.15982825,0.790588235 1.59970637,0.790588235 L16.3587091,0.790588235 C16.7985873,0.790588235 17.1564931,1.14526588 17.1564931,1.58117647 L17.1564931,3.16235294 L15.9722825,3.16235294 C15.7519945,3.16235294 15.5733906,3.33934588 15.5733906,3.55764706 C15.5733906,3.77594824 15.7519945,3.95294118 15.9722825,3.95294118 L17.1564931,3.95294118 L17.1564931,20.1682024 L0.801922438,20.1682024 L0.801922438,20.1682024 Z" id="Shape" fill="#000000"></path>
        <path d="M8.97920776,5.53436471 C5.34101385,5.53436471 2.38108587,8.46754588 2.38108587,12.0729247 C2.38108587,15.6783035 5.34096399,18.6114847 8.97920776,18.6114847 C12.6174017,18.6114847 15.5772798,15.6783035 15.5772798,12.0729247 C15.5772798,8.46754588 12.6174017,5.53436471 8.97920776,5.53436471 L8.97920776,5.53436471 Z M8.97920776,17.8208965 C5.78089197,17.8208965 3.17886981,15.2423435 3.17886981,12.0729247 C3.17886981,8.90350588 5.78089197,6.32495294 8.97920776,6.32495294 C11.4078116,6.32495294 13.4922216,7.81195059 14.3550249,9.91526118 L13.9902881,9.91526118 C13.8198116,9.91526118 13.6556177,9.94219059 13.5014958,9.99145412 C12.6909972,8.26476 10.926349,7.13199529 8.97920776,7.13199529 C6.2299446,7.13199529 3.99330748,9.34845882 3.99330748,12.0729247 C3.99330748,14.7973906 6.2299446,17.0138541 8.97920776,17.0138541 C10.9263989,17.0138541 12.6909972,15.8810894 13.5014958,14.1543953 C13.6556177,14.2036588 13.8198116,14.2305882 13.9902881,14.2305882 L14.3550249,14.2305882 C13.4922216,16.3338988 11.4078116,17.8208965 8.97920776,17.8208965 L8.97920776,17.8208965 Z M13.5459224,13.3056 C13.5383435,13.2995224 13.5304155,13.2937906 13.522338,13.2883059 C13.3229418,13.1444682 13.192554,12.9120353 13.192554,12.6494118 L13.192554,11.4964376 C13.192554,11.2338635 13.3229418,11.0014306 13.522338,10.8575435 C13.5304155,10.8520094 13.5383435,10.8462776 13.5459224,10.8402494 C13.6730194,10.7554588 13.8258947,10.7058494 13.9902881,10.7058494 L14.6133075,10.7058494 C14.7216066,11.1441812 14.7794958,11.6019318 14.7794958,12.0729247 C14.7794958,12.5439176 14.7216066,13.0016682 14.6133075,13.44 L13.9902881,13.44 C13.8258947,13.44 13.6729695,13.3903906 13.5459224,13.3056 L13.5459224,13.3056 Z M12.8218837,13.7246612 C12.1625152,15.2292988 10.650964,16.2232659 8.97920776,16.2232659 C6.66987258,16.2232659 4.79109141,14.3614306 4.79109141,12.0729247 C4.79109141,9.78441882 6.66987258,7.92258353 8.97920776,7.92258353 C10.650964,7.92258353 12.1625152,8.91655059 12.8218837,10.4211882 C12.5570693,10.7035765 12.3947202,11.0814776 12.3947202,11.4964376 L12.3947202,12.6494118 C12.3947202,13.0643718 12.5570693,13.4422729 12.8218837,13.7246612 L12.8218837,13.7246612 Z" id="Shape" fill="#000000"></path>
        <path d="M15.5609252,1.98057176 C15.5609252,1.54693412 15.2048643,1.19408471 14.7672798,1.19408471 C14.3296953,1.19408471 13.9736842,1.54693412 13.9736842,1.98057176 C13.9736842,2.41420941 14.3296953,2.76705882 14.7672798,2.76705882 C15.2048643,2.76705882 15.5609252,2.41420941 15.5609252,1.98057176 L15.5609252,1.98057176 Z" id="Shape" fill="#000000"></path>
        <path d="M12.3905817,1.19408471 C11.9529972,1.19408471 11.5969363,1.54693412 11.5969363,1.98057176 C11.5969363,2.41420941 11.9529972,2.76705882 12.3905817,2.76705882 C12.8281662,2.76705882 13.1841773,2.41420941 13.1841773,1.98057176 C13.1841773,1.54693412 12.8281662,1.19408471 12.3905817,1.19408471 L12.3905817,1.19408471 Z" id="Shape" fill="#000000"></path>
        <path d="M6.00412188,1.58527765 L2.41409418,1.58527765 C2.19380609,1.58527765 2.01520222,1.76227059 2.01520222,1.98057176 C2.01520222,2.19887294 2.19380609,2.37586588 2.41409418,2.37586588 L6.00412188,2.37586588 C6.22440997,2.37586588 6.40301385,2.19887294 6.40301385,1.98057176 C6.40301385,1.76227059 6.22440997,1.58527765 6.00412188,1.58527765 L6.00412188,1.58527765 Z" id="Shape" fill="#000000"></path>
        <path d="M8.36426593,1.58527765 L7.59555125,1.58527765 C7.37526316,1.58527765 7.19665928,1.76227059 7.19665928,1.98057176 C7.19665928,2.19887294 7.37526316,2.37586588 7.59555125,2.37586588 L8.36426593,2.37586588 C8.58455402,2.37586588 8.76315789,2.19887294 8.76315789,1.98057176 C8.76315789,1.76227059 8.58455402,1.58527765 8.36426593,1.58527765 L8.36426593,1.58527765 Z" id="Shape" fill="#000000"></path>
        <path d="M8.97920776,8.69671765 C7.10057618,8.69671765 5.57222161,10.2112871 5.57222161,12.0729247 C5.57222161,12.2912259 5.75082548,12.4682188 5.97111357,12.4682188 C6.19140166,12.4682188 6.37000554,12.2912259 6.37000554,12.0729247 C6.37000554,10.6471976 7.54050416,9.48730588 8.97920776,9.48730588 C9.19949584,9.48730588 9.37809972,9.31031294 9.37809972,9.09201176 C9.37809972,8.87371059 9.19949584,8.69671765 8.97920776,8.69671765 L8.97920776,8.69671765 Z" id="Shape" fill="#000000"></path>
    </g>
</svg>
